<svg width="38" height="36" viewBox="0 0 38 36" fill="none" xmlns="http://www.w3.org/2000/svg">
<path d="M14.2365 33.9761C11.4439 33.1447 8.95818 31.6011 6.9899 29.5558C7.72418 28.6856 8.16668 27.5612 8.16668 26.3334C8.16668 23.572 5.9281 21.3334 3.16668 21.3334C2.99964 21.3334 2.8345 21.3417 2.67167 21.3577C2.44984 20.2731 2.33334 19.1502 2.33334 18.0001C2.33334 16.2579 2.60065 14.5782 3.0965 12.9996C3.11985 12.9999 3.14324 13.0001 3.16668 13.0001C5.9281 13.0001 8.16668 10.7615 8.16668 8.00008C8.16668 7.20733 7.98218 6.45774 7.65384 5.79175C9.58126 3.99958 11.9338 2.65834 14.5434 1.93594C15.3703 3.55682 17.0556 4.66677 19 4.66677C20.9444 4.66677 22.6297 3.55682 23.4566 1.93594C26.0663 2.65834 28.4188 3.99958 30.3462 5.79175C30.0178 6.45774 29.8333 7.20733 29.8333 8.00008C29.8333 10.7615 32.0719 13.0001 34.8333 13.0001C34.8568 13.0001 34.8802 12.9999 34.9035 12.9996C35.3993 14.5782 35.6667 16.2579 35.6667 18.0001C35.6667 19.1502 35.5502 20.2731 35.3283 21.3577C35.1655 21.3417 35.0004 21.3334 34.8333 21.3334C32.0719 21.3334 29.8333 23.572 29.8333 26.3334C29.8333 27.5612 30.2758 28.6856 31.0101 29.5558C29.0418 31.6011 26.5561 33.1447 23.7635 33.9761C23.119 31.96 21.23 30.5001 19 30.5001C16.77 30.5001 14.881 31.96 14.2365 33.9761Z" fill="#2F88FF" stroke="black" stroke-width="3.33333" stroke-linejoin="round"/>
<path d="M19 23.8333C22.2217 23.8333 24.8334 21.2217 24.8334 18C24.8334 14.7783 22.2217 12.1667 19 12.1667C15.7784 12.1667 13.1667 14.7783 13.1667 18C13.1667 21.2217 15.7784 23.8333 19 23.8333Z" fill="#43CCF8" stroke="white" stroke-width="3.33333" stroke-linejoin="round"/>
</svg>
